<?xml version="1.0" standalone="no"?>
<!DOCTYPE svg PUBLIC "-//W3C//DTD SVG 20010904//EN"
 "http://www.w3.org/TR/2001/REC-SVG-20010904/DTD/svg10.dtd">
<svg version="1.0" xmlns="http://www.w3.org/2000/svg"
 width="260.000000pt" height="260.000000pt" viewBox="0 0 260.000000 260.000000"
 preserveAspectRatio="xMidYMid meet">
<metadata>
Created by potrace 1.14, written by Peter Selinger 2001-2017
</metadata>
<g transform="translate(0.000000,260.000000) scale(0.100000,-0.100000)"
fill="#000000" stroke="none">
<path d="M973 2335 c-84 -26 -151 -62 -158 -86 -9 -27 11 -51 75 -92 46 -30
117 -101 173 -172 4 -5 17 -21 28 -35 101 -120 155 -252 124 -297 -21 -29 -92
-62 -152 -69 -11 -1 -29 -4 -40 -7 -10 -3 -45 -9 -78 -12 -33 -4 -82 -11 -110
-16 -127 -24 -144 -44 -96 -111 16 -24 35 -63 42 -88 12 -43 13 -252 6 -748
l-2 -143 125 -55 c69 -30 134 -58 145 -63 11 -5 73 -31 139 -57 l119 -48 31
18 c198 117 338 183 403 191 16 2 49 6 74 10 50 6 80 29 75 58 -1 9 -16 32
-33 50 -54 57 -61 134 -62 663 -1 301 -3 332 -19 350 -9 10 -73 86 -142 168
-69 82 -176 211 -239 285 -62 75 -144 175 -182 222 -94 118 -113 124 -246 84z
m455 -804 c40 -21 57 -81 68 -242 9 -131 12 -789 3 -794 -15 -10 -333 68 -355
86 -30 25 -37 86 -40 379 -4 408 6 449 126 525 92 58 150 72 198 46z"/>
</g>
</svg>
