<?xml version="1.0" standalone="no"?>
<!DOCTYPE svg PUBLIC "-//W3C//DTD SVG 20010904//EN"
 "http://www.w3.org/TR/2001/REC-SVG-20010904/DTD/svg10.dtd">
<svg version="1.0" xmlns="http://www.w3.org/2000/svg"
 width="260.000000pt" height="260.000000pt" viewBox="0 0 260.000000 260.000000"
 preserveAspectRatio="xMidYMid meet">
<metadata>
Created by potrace 1.14, written by Peter Selinger 2001-2017
</metadata>
<g transform="translate(0.000000,260.000000) scale(0.100000,-0.100000)"
fill="#000000" stroke="none">
<path d="M1001 2344 c-67 -18 -167 -62 -182 -80 -22 -26 0 -63 57 -100 68 -44
110 -85 202 -199 71 -89 136 -203 147 -261 14 -71 -65 -109 -290 -140 -150
-20 -219 -41 -223 -70 -2 -11 11 -37 27 -58 48 -61 55 -115 51 -441 -2 -159
-4 -346 -4 -414 l-1 -124 230 -99 c326 -139 279 -133 425 -49 150 86 262 131
353 141 105 12 134 51 77 105 -16 15 -34 42 -39 59 -20 61 -31 277 -31 606 l0
335 -92 110 c-50 61 -151 180 -223 265 -72 85 -178 213 -234 283 -57 71 -114
132 -128 138 -32 12 -57 11 -122 -7z m408 -805 c78 -27 91 -122 91 -662 l0
-389 -32 7 c-117 24 -312 76 -324 85 -33 28 -39 90 -39 410 0 231 3 327 13
358 23 76 115 156 217 188 22 7 40 13 41 13 1 1 15 -4 33 -10z"/>
</g>
</svg>
